<svg width="34" height="38" viewBox="0 0 34 38" fill="none" xmlns="http://www.w3.org/2000/svg">
<path d="M11.9466 18.7584C12.5385 19.6149 12.3616 18.9012 12.3616 35.9733C12.3616 37.501 14.1046 38.3754 15.333 37.4616C20.5824 33.5038 21.6312 33.1611 21.6312 31.3098C21.6312 18.8691 21.4862 19.5687 22.0461 18.7584L30.5704 7.1553H3.42236L11.9466 18.7584Z" fill="black"/>
<path d="M33.7902 1.11242C33.4856 0.529023 32.8882 0.166328 32.2306 0.166328H1.76165C0.341406 0.166328 -0.494262 1.76844 0.320439 2.93251C0.327134 2.9437 0.227963 2.80796 1.80064 4.9483H32.1915C33.5317 3.12431 34.4276 2.33624 33.7902 1.11242Z" fill="black"/>
</svg>
